<svg viewBox="0 0 30 30" xmlns="http://www.w3.org/2000/svg"><path style="fill:#212529;" d="m14.720703 1.7890625a5.5789208 5.9231267 0 0 0 -5.580078 5.9238281 5.5789208 5.9231267 0 0 0 5.580078 5.9238284 5.5789208 5.9231267 0 0 0 4.589844-2.560547c.265515.227466.514583.47473.746094.74414.351499.394661.66031.83212.927734 1.294922l2.447266-1.666015c-.783991-1.377597-1.881975-2.5238668-3.148438-3.3964846a5.5789208 5.9231267 0 0 0 .015625-.3398438 5.5789208 5.9231267 0 0 0 -5.578125-5.9238281zm-8.4003905 9.1542965-.03125.048829-.0253906.037109c-1.0572002 1.617473-1.6422826 3.547307-1.7441407 5.503906a5.5789208 5.9231267 0 0 0 -3.1054687 5.306641 5.5789208 5.9231267 0 0 0 5.578125 5.923828 5.5789208 5.9231267 0 0 0 5.5800785-5.923828 5.5789208 5.9231267 0 0 0 -5.0742191-5.894532c.1142112-.813672.3414787-1.60801.7050781-2.341796.1426832-.302132.3092874-.591825.4882812-.871094zm16.1269535 4.972657a5.5789208 5.9231267 0 0 0 -5.578125 5.923828 5.5789208 5.9231267 0 0 0 .529297 2.503906c-.919277.389989-1.907149.596311-2.904297.548828-.383126-.01204-.765936-.057159-1.142579-.132812-.170415 1.013098-.341302 2.025963-.511718 3.039062 2.209721.458517 4.53477.058821 6.533203-1.019531a5.5789208 5.9231267 0 0 0 3.074219.984375 5.5789208 5.9231267 0 0 0 5.580078-5.923828 5.5789208 5.9231267 0 0 0 -5.580078-5.923828z"/></svg>