<svg viewBox="0 0 32 32" xmlns="http://www.w3.org/2000/svg"><path style="fill:#fff;" d="m2.1 28.1h7.1v3.9h-7.1z"/><path style="fill:#fff;" d="m9.1 7s0-.5 0-.7c-.5-4.8-3.5-6.3-3.5-6.3s-3 1.5-3.5 6.3v.7 18.4h3.5 3.5z"/><path style="fill:#fff;" d="m12.5 28.1h7.1v3.9h-7.1z"/><path style="fill:#fff;" d="m19.5 7s0-.5 0-.7c-.5-4.8-3.5-6.3-3.5-6.3s-3 1.5-3.5 6.3v.7 18.4h3.5 3.5z"/><path style="fill:#fff;" d="m22.9 28.1h7.1v3.9h-7.1z"/><path style="fill:#fff;" d="m29.9 7s0-.5 0-.7c-.5-4.8-3.5-6.3-3.5-6.3s-3 1.5-3.5 6.3v.7 18.4h3.5 3.5z"/></svg>